<svg width="96" height="95" viewBox="0 0 96 95" fill="none" xmlns="http://www.w3.org/2000/svg">
<path d="M48.4989 79.2546L48 79.1545L47.5012 79.2546C39.4419 80.8663 31.8334 79.9701 26.2753 75.5234C20.7466 71.1005 16.6328 62.6703 16.6328 47.8378C16.6328 32.6691 20.0507 26.5066 24.5523 24.2558C26.9069 23.0785 29.9519 22.7359 33.8264 23.183C37.6963 23.6295 42.1617 24.8353 47.1957 26.5133L48.0797 26.8079L48.9444 26.4619C57.36 23.0956 64.9244 21.8061 70.2379 24.2857C75.2204 26.6109 79.3673 32.8944 79.3673 47.8378C79.3673 62.6703 75.2536 71.1005 69.7248 75.5234C64.1665 79.9701 56.558 80.8663 48.4989 79.2546Z" stroke="white" stroke-width="5"/>
<path d="M48.0003 25.7954C48.0003 17.3178 44.6093 13.9268 37.8271 13.9268" stroke="white" stroke-width="5" stroke-linecap="round" stroke-linejoin="round"/>
</svg>
