<svg width="96" height="95" viewBox="0 0 96 95" fill="none" xmlns="http://www.w3.org/2000/svg">
<path d="M63.8338 15.6394C66.8026 14.8437 70.4244 15.0654 72.6213 15.6394C77.5712 16.9417 81.1812 19.1781 83.3405 22.2894C85.8402 25.8855 86.2716 30.4772 84.6309 35.9337C81.2683 47.0962 67.6101 54.0233 66.8026 54.4271C66.8718 56.5329 67.3567 59.8698 68.095 62.0825C69.138 65.1997 70.0979 68.394 69.4408 71.8002C68.7817 75.2083 67.1568 77.7852 64.954 79.5368C62.9313 81.1577 60.4277 81.979 57.5183 81.979C56.4812 81.9771 55.4461 81.8742 54.4268 81.6802M26.2296 52.4479C26.2296 52.4479 14.7307 47.0923 11.372 35.9337C9.72933 30.4792 10.1628 25.8914 12.6605 22.2894C14.8237 19.1801 18.4278 16.9456 23.3796 15.6394C25.5785 15.0654 27.6824 14.7705 29.6378 14.7705M27.2192 53.4375C28.2088 55.4167 27.3538 58.9712 26.3088 62.0904C25.2658 65.2096 24.1891 68.4277 24.963 71.8081C25.7349 75.1846 27.245 77.7911 29.4438 79.5427C31.4705 81.1616 33.2161 82.1354 36.1255 82.1354C37.1606 82.1314 40.0838 81.1458 40.0838 81.1458" stroke="white" stroke-width="4" stroke-linecap="round" stroke-linejoin="round"/>
<path d="M47.0111 7.91699C57.3958 7.91699 65.8132 13.1479 65.8132 28.4508C65.8132 43.7557 47.0111 63.3337 47.0111 63.3337C47.0111 63.3337 28.209 43.7538 28.209 28.4508C28.209 13.146 36.6264 7.91699 47.0111 7.91699Z" stroke="white" stroke-width="4" stroke-linecap="round" stroke-linejoin="round"/>
<path d="M48.0003 83.5783C44.0221 83.5783 40.6378 82.2681 38.3617 80.2731C35.7354 77.9653 34.3975 74.6799 34.3975 70.5118C34.3975 67.0364 36.2777 64.1369 38.0926 61.3285C39.383 59.3354 41.1682 55.4108 41.1682 55.4108C41.1682 55.4108 42.1083 52.1728 41.9539 50.067C41.6669 46.1799 37.8927 43.2527 37.2791 41.2459C36.5369 38.7521 36.719 37.2321 37.8432 36.4721C38.1895 36.2346 39.5156 36.1555 39.5156 36.1555C39.5156 36.1555 39.2662 32.5019 39.4226 31.2966C39.6106 29.8518 40.3646 27.7895 42.138 27.6391C43.3651 27.5342 44.3349 27.7183 44.9642 29.0384C45.1661 29.4659 45.3066 29.9824 45.5026 30.6989C46.1617 33.0861 46.9931 35.4224 47.9904 37.6893C48.99 35.4227 49.8234 33.0864 50.4841 30.6989C50.682 29.9844 50.8206 29.4659 51.0244 29.0364C51.6538 27.7163 52.6276 27.5362 53.8546 27.6411C55.3489 27.7717 56.3781 29.8558 56.5661 31.2966C56.7244 32.5019 56.6928 34.107 56.4731 36.1535H56.5661C56.9916 36.1535 57.8051 36.2326 58.1534 36.4701C59.2795 37.2301 59.3449 39.4765 58.7135 41.2459C57.8961 43.5417 54.3395 45.7841 53.9378 49.4792C53.6825 51.8087 54.1258 53.1802 54.8304 55.4127C55.6141 57.8966 56.6116 59.3374 57.906 61.3285C59.7229 64.1349 61.6011 67.0384 61.6011 70.5118C61.6011 74.6799 60.2671 77.9634 57.6349 80.2711C55.3549 82.2661 51.9784 83.5763 48.0003 83.5783Z" stroke="white" stroke-width="4" stroke-linecap="round" stroke-linejoin="round"/>
</svg>
