<svg width="96" height="95" viewBox="0 0 96 95" fill="none" xmlns="http://www.w3.org/2000/svg">
<path d="M54.4121 33.1784L62.1942 25.3924C61.2735 24.472 60.594 23.3387 60.2159 22.093C59.8378 20.8472 59.7727 19.5275 60.0265 18.2506C60.2802 16.9737 60.8449 15.7791 61.6706 14.7726C62.4963 13.7661 63.5575 12.9787 64.7601 12.4802C65.9628 11.9818 67.2698 11.7876 68.5654 11.9149C69.861 12.0422 71.1053 12.487 72.1879 13.21C73.2705 13.933 74.1582 14.9119 74.7722 16.0598C75.3862 17.2078 75.7076 18.4895 75.708 19.7914C77.0102 19.7904 78.2925 20.1107 79.4413 20.7239C80.5901 21.337 81.5699 22.2241 82.2939 23.3065C83.0179 24.3889 83.4637 25.6331 83.5919 26.929C83.72 28.2249 83.5265 29.5323 83.0285 30.7355C82.5305 31.9387 81.7434 33.0005 80.737 33.8268C79.7305 34.6531 78.5358 35.2183 77.2586 35.4725C75.9814 35.7266 74.6613 35.6618 73.4152 35.2837C72.1691 34.9056 71.0355 34.226 70.1149 33.3051L62.9107 40.5132M30.1871 63.333L34.1455 67.2914M23.8696 73.6089C34.6878 84.4309 47.2238 89.4422 51.8551 84.807C56.4942 80.1678 51.483 67.6357 40.6609 56.8176C29.8428 45.9955 17.3067 40.9843 12.6755 45.6195C8.03631 50.2586 13.0476 62.7907 23.8696 73.6089Z" stroke="white" stroke-width="5" stroke-linecap="round" stroke-linejoin="round"/>
<path d="M51.8593 84.8068C67.3166 69.3455 71.077 48.0418 60.2549 37.2237C49.4368 26.4016 28.1331 30.162 12.6758 45.6193" stroke="white" stroke-width="5" stroke-linecap="round" stroke-linejoin="round"/>
</svg>
