<svg width="96" height="95" viewBox="0 0 96 95" fill="none" xmlns="http://www.w3.org/2000/svg">
<path d="M8.4165 47.4997C8.4165 32.5719 8.4165 25.108 13.054 20.4705C17.6915 15.833 25.1554 15.833 40.0832 15.833H46.0207C60.9485 15.833 68.4124 15.833 73.0499 20.4705C77.6873 25.108 77.6873 32.5719 77.6873 47.4997C77.6873 62.4275 77.6873 69.8914 73.0499 74.5289C68.4124 79.1663 60.9485 79.1663 46.0207 79.1663H40.0832C25.1554 79.1663 17.6915 79.1663 13.054 74.5289C8.4165 69.8914 8.4165 62.4275 8.4165 47.4997Z" stroke="white" stroke-width="5"/>
<path d="M87.5835 55.417L87.5835 39.5837" stroke="white" stroke-width="5" stroke-linecap="round"/>
<path d="M46.0208 35.625L36.125 47.5H49.9792L40.0833 59.375" stroke="white" stroke-width="5" stroke-linecap="round" stroke-linejoin="round"/>
</svg>
