<svg width="96" height="95" viewBox="0 0 96 95" fill="none" xmlns="http://www.w3.org/2000/svg">
<path d="M15.1104 83H80.8896C84.5074 83 86.9303 82.061 88.1582 80.1829C89.3861 78.3048 90 76.1764 90 73.7978V47.9851C90 45.3363 89.2172 42.9156 87.6517 40.723C86.0861 38.5304 84.1281 37.0421 81.7776 36.2581V29.8464C81.7776 25.5011 80.2384 21.7737 77.1599 18.6642C74.0814 15.5547 70.3912 14 66.0893 14H29.9107C25.6132 14 21.9229 15.5547 18.8401 18.6642C15.7572 21.7737 14.218 25.5011 14.2224 29.8464V36.2581C11.8719 37.0421 9.91386 38.5304 8.34832 40.723C6.78277 42.9156 6 45.3363 6 47.9851V73.7978C6 77.4521 6.92968 79.8994 8.78904 81.1396C10.6484 82.3799 12.7555 83 15.1104 83ZM15.1104 77.1199C14.1237 77.1199 13.3278 76.8165 12.7226 76.2096C12.1175 75.6028 11.8171 74.7988 11.8215 73.7978V47.9851C11.8215 46.1026 12.4529 44.5257 13.7159 43.2544C14.9789 41.9831 16.54 41.3453 18.3994 41.3409C20.2587 41.3364 21.8221 41.9743 23.0894 43.2544C24.3568 44.5345 24.9861 46.1114 24.9773 47.9851V61.2735H71.0227V47.9851C71.0227 46.1026 71.6542 44.5257 72.9171 43.2544C74.1801 41.9831 75.7413 41.3453 77.6006 41.3409C79.46 41.3364 81.0233 41.9743 82.2907 43.2544C83.558 44.5345 84.1873 46.1114 84.1785 47.9851V73.7978C84.1785 74.7944 83.8782 75.5984 83.2774 76.2096C82.6766 76.8209 81.8807 77.1243 80.8896 77.1199H15.1104ZM30.7987 55.3934V47.9851C30.7987 44.6896 29.7309 41.8968 27.5953 39.6067C25.4641 37.3167 22.9469 36.0477 20.0439 35.7996V29.8464C20.0439 26.9673 20.9757 24.5864 22.8395 22.7039C24.7032 20.8214 27.0603 19.8801 29.9107 19.8801H66.0893C68.9397 19.8801 71.2968 20.8214 73.1605 22.7039C75.0243 24.5864 75.9561 26.9673 75.9561 29.8464V35.7996C73.0531 36.0477 70.5359 37.3167 68.4047 39.6067C66.2735 41.8968 65.2056 44.6896 65.2012 47.9851V55.4L30.7987 55.3934Z" fill="white"/>
</svg>
