<svg width="96" height="95" viewBox="0 0 96 95" fill="none" xmlns="http://www.w3.org/2000/svg">
<path fill-rule="evenodd" clip-rule="evenodd" d="M31.9894 4.94826C32.0483 4.94826 32.1073 4.94827 32.1665 4.94827L64.0103 4.94826C65.7235 4.94805 67.2943 4.94787 68.5721 5.11966C69.9792 5.30884 71.4665 5.75395 72.6897 6.97717C73.9129 8.20038 74.358 9.68763 74.5472 11.0947C74.719 12.3725 74.7188 13.9433 74.7186 15.6566V16.0108C74.7188 17.724 74.719 19.2948 74.5472 20.5726C74.358 21.9797 73.9129 23.467 72.6897 24.6902C71.4665 25.9134 69.9792 26.3585 68.5721 26.5477C67.2943 26.7195 65.7235 26.7193 64.0103 26.7191L58.8853 26.7191V35.2867L64.5534 36.7037C66.1441 37.1014 67.1112 38.7132 66.7135 40.3039C66.3158 41.8945 64.704 42.8616 63.1134 42.464L58.8853 41.4069V49.1409L64.5534 50.5579C66.1441 50.9556 67.1112 52.5674 66.7135 54.158C66.3158 55.7487 64.704 56.7158 63.1134 56.3181L58.8853 55.2611V56.9134C62.3444 58.136 64.8228 61.435 64.8228 65.3129C64.8228 69.6512 61.7209 73.265 57.614 74.0575C58.4254 75.5811 58.8853 77.3204 58.8853 79.167C58.8853 85.1789 54.0117 90.0524 47.9998 90.0524C41.988 90.0524 37.1144 85.1789 37.1144 79.167C37.1144 77.3204 37.5743 75.5811 38.3857 74.0575C34.2788 73.265 31.1769 69.6512 31.1769 65.3129C31.1769 61.435 33.6553 58.136 37.1144 56.9134V49.8184L31.4467 48.4015C29.856 48.0038 28.8889 46.392 29.2866 44.8013C29.6843 43.2107 31.2961 42.2436 32.8867 42.6412L37.1144 43.6982V35.9642L31.4467 34.5473C29.856 34.1496 28.8889 32.5378 29.2866 30.9471C29.6843 29.3565 31.2961 28.3894 32.8867 28.7871L37.1144 29.844V26.7191H32.1665C32.1073 26.7191 32.0483 26.7191 31.9894 26.7191C30.2762 26.7193 28.7054 26.7195 27.4276 26.5477C26.0204 26.3585 24.5332 25.9134 23.31 24.6902C22.0868 23.467 21.6417 21.9797 21.4525 20.5726C21.2807 19.2948 21.2809 17.724 21.2811 16.0108C21.2811 15.9519 21.2811 15.8929 21.2811 15.8337C21.2811 15.7745 21.2811 15.7154 21.2811 15.6566C21.2809 13.9433 21.2807 12.3725 21.4525 11.0947C21.6417 9.68763 22.0868 8.20038 23.31 6.97717C24.5332 5.75395 26.0204 5.30884 27.4276 5.11966C28.7054 4.94787 30.2761 4.94805 31.9894 4.94826ZM43.0519 26.7191V31.3284L52.9478 33.8023V26.7191H43.0519ZM52.9478 39.9225L43.0519 37.4486V45.1825L52.9478 47.6565V39.9225ZM52.9478 53.7767L43.0519 51.3028V56.4066H52.9478V53.7767ZM47.9998 74.2191C45.2672 74.2191 43.0519 76.4344 43.0519 79.167C43.0519 81.8997 45.2672 84.1149 47.9998 84.1149C50.7325 84.1149 52.9478 81.8997 52.9478 79.167C52.9478 76.4344 50.7325 74.2191 47.9998 74.2191ZM55.9165 68.2816C57.5561 68.2816 58.8853 66.9524 58.8853 65.3129C58.8853 63.6733 57.5561 62.3441 55.9165 62.3441H40.0832C38.4436 62.3441 37.1144 63.6733 37.1144 65.3129C37.1144 66.9524 38.4436 68.2816 40.0832 68.2816H55.9165ZM27.5086 11.1754C27.5099 11.1743 27.5102 11.1738 27.5086 11.1754V11.1754ZM27.5181 11.1702L27.5086 11.1754L27.503 11.1853C27.499 11.193 27.4926 11.2061 27.4844 11.226C27.449 11.3123 27.3884 11.5037 27.337 11.8859C27.2249 12.72 27.2186 13.8838 27.2186 15.8337C27.2186 17.7836 27.2249 18.9474 27.337 19.7815C27.3884 20.1637 27.449 20.3551 27.4844 20.4413C27.4926 20.4613 27.499 20.4744 27.503 20.4821L27.5085 20.4917L27.5181 20.4972C27.5258 20.5012 27.5389 20.5076 27.5589 20.5158C27.6451 20.5512 27.8365 20.6118 28.2187 20.6632C29.0528 20.7753 30.2166 20.7816 32.1665 20.7816H63.8332C65.7831 20.7816 66.9468 20.7753 67.781 20.6632C68.1632 20.6118 68.3546 20.5512 68.4408 20.5158C68.4608 20.5076 68.4739 20.5012 68.4816 20.4972L68.4912 20.4917L68.4966 20.4821C68.5006 20.4744 68.507 20.4613 68.5153 20.4413C68.5507 20.3551 68.6113 20.1637 68.6626 19.7815C68.7748 18.9474 68.7811 17.7836 68.7811 15.8337C68.7811 13.8838 68.7748 12.72 68.6626 11.8859C68.6113 11.5037 68.5507 11.3123 68.5153 11.226C68.507 11.2061 68.5006 11.193 68.4966 11.1853L68.4912 11.1757L68.4816 11.1702C68.4739 11.1662 68.4608 11.1598 68.4408 11.1516C68.3546 11.1161 68.1632 11.0556 67.781 11.0042C66.9468 10.8921 65.7831 10.8858 63.8332 10.8858H32.1665C30.2166 10.8858 29.0528 10.8921 28.2187 11.0042C27.8365 11.0556 27.6451 11.1161 27.5589 11.1516C27.5389 11.1598 27.5258 11.1662 27.5181 11.1702ZM68.4912 11.1757C68.4906 11.1749 68.4913 11.1758 68.4912 11.1757V11.1757ZM68.4912 11.1757C68.4906 11.1749 68.4913 11.1758 68.4912 11.1757V11.1757ZM27.5085 20.4917C27.5069 20.4901 27.5074 20.4904 27.5085 20.4917V20.4917ZM15.1005 29.5782C16.254 28.4129 18.1336 28.4034 19.2989 29.5569L22.0979 32.3276C23.2631 33.481 23.2726 35.3607 22.1192 36.5259C20.9657 37.6912 19.086 37.7007 17.9208 36.5473L15.1218 33.7766C13.9566 32.6231 13.947 30.7434 15.1005 29.5782ZM80.8992 29.5782C82.0527 30.7434 82.0431 32.6231 80.8779 33.7766L78.0789 36.5473C76.9137 37.7007 75.034 37.6912 73.8805 36.5259C72.727 35.3607 72.7366 33.481 73.9018 32.3276L76.7008 29.5569C77.866 28.4034 79.7457 28.4129 80.8992 29.5782ZM76.6978 45.519C76.6978 43.8794 78.0269 42.5502 79.6665 42.5502H87.5832C89.2228 42.5502 90.5519 43.8794 90.5519 45.519C90.5519 47.1586 89.2228 48.4877 87.5832 48.4877H79.6665C78.0269 48.4877 76.6978 47.1586 76.6978 45.519ZM5.44775 45.5228C5.44775 43.8832 6.77691 42.5541 8.4165 42.5541H16.3332C17.9728 42.5541 19.3019 43.8832 19.3019 45.5228C19.3019 47.1624 17.9728 48.4916 16.3332 48.4916H8.4165C6.77691 48.4916 5.44775 47.1624 5.44775 45.5228ZM22.1192 54.5158C23.2726 55.6811 23.2631 57.5607 22.0979 58.7142L19.2989 61.4849C18.1337 62.6384 16.254 62.6288 15.1005 61.4636C13.947 60.2984 13.9566 58.4187 15.1218 57.2652L17.9208 54.4945C19.086 53.341 20.9657 53.3506 22.1192 54.5158ZM73.8805 54.5158C75.034 53.3506 76.9137 53.341 78.0789 54.4945L80.8779 57.2652C82.0431 58.4187 82.0527 60.2984 80.8992 61.4636C79.7457 62.6288 77.866 62.6384 76.7008 61.4849L73.9018 58.7142C72.7366 57.5607 72.727 55.6811 73.8805 54.5158Z" fill="white"/>
</svg>
