<svg width="96" height="95" viewBox="0 0 96 95" fill="none" xmlns="http://www.w3.org/2000/svg">
<path fill-rule="evenodd" clip-rule="evenodd" d="M42.1833 5.81777C43.3427 6.97714 43.3427 8.85685 42.1833 10.0162C41.1565 11.043 41.1565 12.7077 42.1833 13.7344C45.5288 17.0799 45.5288 22.5041 42.1833 25.8495C41.0239 27.0089 39.1442 27.0089 37.9849 25.8495C36.8255 24.6902 36.8255 22.8105 37.9849 21.6511C39.0116 20.6243 39.0116 18.9596 37.9849 17.9329C34.6394 14.5874 34.6394 9.16326 37.9849 5.81777C39.1442 4.6584 41.0239 4.6584 42.1833 5.81777ZM24.3702 11.7553C25.5296 12.9146 25.5296 14.7943 24.3702 15.9537L23.9106 16.4133C22.9477 17.3762 22.8394 18.9006 23.6564 19.9899C26.2463 23.4431 25.9029 28.2752 22.8507 31.3274L22.391 31.787C21.2317 32.9464 19.352 32.9464 18.1926 31.787C17.0332 30.6277 17.0332 28.748 18.1926 27.5886L18.6522 27.129C19.6151 26.1661 19.7234 24.6418 18.9064 23.5524C16.3165 20.0992 16.6599 15.2671 19.7121 12.2149L20.1718 11.7553C21.3311 10.5959 23.2108 10.5959 24.3702 11.7553ZM61.9744 11.7553C63.1337 12.9146 63.1337 14.7943 61.9744 15.9537L61.5147 16.4133C60.5519 17.3762 60.4435 18.9006 61.2606 19.9899C63.8505 23.4431 63.507 28.2752 60.4548 31.3274L59.9952 31.787C58.8358 32.9464 56.9561 32.9464 55.7968 31.787C54.6374 30.6277 54.6374 28.748 55.7968 27.5886L56.2564 27.129C57.2192 26.1661 57.3276 24.6418 56.5106 23.5524C53.9207 20.0992 54.2641 15.2671 57.3163 12.2149L57.7759 11.7553C58.9353 10.5959 60.815 10.5959 61.9744 11.7553ZM18.8961 36.6148C18.9855 36.6149 19.0762 36.6149 19.1682 36.6149H60.9987C61.0907 36.6149 61.1814 36.6149 61.2708 36.6148C62.7064 36.6142 63.8076 36.6137 64.7598 36.783C67.3789 37.2486 69.6487 38.6313 71.2512 40.5732H75.7085C83.9064 40.5732 90.5522 47.219 90.5522 55.417C90.5522 63.615 83.9064 70.2607 75.7085 70.2607H70.3558C68.6219 74.733 65.6096 78.6513 61.6308 81.488C57.4288 84.4839 52.3967 86.0941 47.2359 86.0941H32.931C27.7703 86.0941 22.7382 84.4839 18.5361 81.488C12.8329 77.4218 9.11547 71.1333 8.30233 64.1764L6.7163 50.607C6.70561 50.5156 6.69504 50.4256 6.68463 50.3368C6.51734 48.911 6.389 47.8173 6.44661 46.8519C6.74642 41.8276 10.4517 37.664 15.4072 36.783C16.3593 36.6137 17.4606 36.6142 18.8961 36.6148ZM65.6871 65.1983C65.1531 65.7351 64.8231 66.475 64.8231 67.292C64.8231 67.5101 64.8466 67.7226 64.8912 67.9273C63.5846 71.4065 61.2654 74.4565 58.184 76.6534C54.9881 78.9319 51.1609 80.1566 47.2359 80.1566H32.931C29.006 80.1566 25.1789 78.9319 21.983 76.6534C17.6454 73.5609 14.8181 68.7782 14.1997 63.4871L12.6136 49.9177C12.4006 48.0949 12.3516 47.5742 12.3736 47.2056C12.5098 44.9218 14.1941 43.0293 16.4466 42.6288C16.8102 42.5642 17.333 42.5524 19.1682 42.5524H60.9987C62.8339 42.5524 63.3568 42.5642 63.7204 42.6288C65.9729 43.0293 67.6571 44.9218 67.7934 47.2056C67.8154 47.5742 67.7664 48.0949 67.5533 49.9177L65.9673 63.4871C65.8998 64.0641 65.8061 64.635 65.6871 65.1983ZM71.847 64.3232H75.7085C80.6273 64.3232 84.6147 60.3358 84.6147 55.417C84.6147 50.4982 80.6273 46.5107 75.7085 46.5107H73.6947C73.705 46.624 73.7135 46.7377 73.7203 46.8519C73.778 47.8173 73.6496 48.911 73.4823 50.3368C73.4719 50.4256 73.4613 50.5156 73.4507 50.607L71.8646 64.1764C71.8589 64.2254 71.853 64.2743 71.847 64.3232Z" fill="white"/>
</svg>
