<svg width="96" height="95" viewBox="0 0 96 95" fill="none" xmlns="http://www.w3.org/2000/svg">
<path d="M54.4126 33.1784L62.1947 25.3924C61.274 24.472 60.5945 23.3387 60.2164 22.093C59.8383 20.8472 59.7732 19.5275 60.027 18.2506C60.2807 16.9737 60.8454 15.7791 61.6711 14.7726C62.4968 13.7661 63.558 12.9787 64.7606 12.4802C65.9633 11.9818 67.2703 11.7876 68.5659 11.9149C69.8615 12.0422 71.1058 12.487 72.1884 13.21C73.271 13.933 74.1587 14.9119 74.7727 16.0598C75.3867 17.2078 75.7081 18.4895 75.7085 19.7914C77.0107 19.7904 78.293 20.1107 79.4418 20.7239C80.5906 21.337 81.5704 22.2241 82.2944 23.3065C83.0184 24.3889 83.4642 25.6331 83.5924 26.929C83.7205 28.2249 83.527 29.5323 83.029 30.7355C82.531 31.9387 81.7439 33.0005 80.7375 33.8268C79.731 34.6531 78.5362 35.2183 77.2591 35.4725C75.9819 35.7266 74.6618 35.6618 73.4157 35.2837C72.1696 34.9056 71.036 34.226 70.1153 33.3051L62.9112 40.5132M30.1876 63.333L34.146 67.2914M23.8701 73.6089C34.6883 84.4309 47.2243 89.4422 51.8555 84.807C56.4947 80.1678 51.4835 67.6357 40.6614 56.8176C29.8433 45.9955 17.3072 40.9843 12.676 45.6195C8.0368 50.2586 13.0481 62.7907 23.8701 73.6089Z" stroke="white" stroke-width="5" stroke-linecap="round" stroke-linejoin="round"/>
<path d="M51.8593 84.8068C67.3166 69.3455 71.077 48.0418 60.2549 37.2237C49.4368 26.4016 28.1331 30.162 12.6758 45.6193" stroke="white" stroke-width="5" stroke-linecap="round" stroke-linejoin="round"/>
</svg>
