<svg width="96" height="95" viewBox="0 0 96 95" fill="none" xmlns="http://www.w3.org/2000/svg">
<path d="M63.8333 15.6394C66.8021 14.8437 70.4239 15.0654 72.6208 15.6394C77.5707 16.9417 81.1807 19.1781 83.34 22.2894C85.8397 25.8855 86.2711 30.4772 84.6304 35.9337C81.2678 47.0962 67.6096 54.0233 66.8021 54.4271C66.8713 56.5329 67.3562 59.8698 68.0945 62.0825C69.1375 65.1997 70.0974 68.394 69.4403 71.8002C68.7812 75.2083 67.1563 77.7852 64.9535 79.5368C62.9308 81.1577 60.4272 81.979 57.5178 81.979C56.4807 81.9771 55.4456 81.8742 54.4263 81.6802M26.2292 52.4479C26.2292 52.4479 14.7302 47.0923 11.3716 35.9337C9.72884 30.4792 10.1623 25.8914 12.66 22.2894C14.8232 19.1801 18.4273 16.9456 23.3792 15.6394C25.578 15.0654 27.6819 14.7705 29.6373 14.7705M27.2187 53.4375C28.2083 55.4167 27.3533 58.9712 26.3083 62.0904C25.2653 65.2096 24.1886 68.4277 24.9625 71.8081C25.7344 75.1846 27.2445 77.7911 29.4433 79.5427C31.47 81.1616 33.2156 82.1354 36.125 82.1354C37.1601 82.1314 40.0833 81.1458 40.0833 81.1458" stroke="white" stroke-width="4" stroke-linecap="round" stroke-linejoin="round"/>
<path d="M47.0106 7.91699C57.3953 7.91699 65.8127 13.1479 65.8127 28.4508C65.8127 43.7557 47.0106 63.3337 47.0106 63.3337C47.0106 63.3337 28.2085 43.7538 28.2085 28.4508C28.2085 13.146 36.6259 7.91699 47.0106 7.91699Z" stroke="white" stroke-width="4" stroke-linecap="round" stroke-linejoin="round"/>
<path d="M47.9998 83.5783C44.0217 83.5783 40.6373 82.2681 38.3612 80.2731C35.7349 77.9653 34.397 74.6799 34.397 70.5118C34.397 67.0364 36.2772 64.1369 38.0921 61.3285C39.3825 59.3354 41.1677 55.4108 41.1677 55.4108C41.1677 55.4108 42.1078 52.1728 41.9534 50.067C41.6664 46.1799 37.8922 43.2527 37.2786 41.2459C36.5365 38.7521 36.7185 37.2321 37.8427 36.4721C38.1891 36.2346 39.5151 36.1555 39.5151 36.1555C39.5151 36.1555 39.2657 32.5019 39.4221 31.2966C39.6101 29.8518 40.3642 27.7895 42.1375 27.6391C43.3646 27.5342 44.3344 27.7183 44.9637 29.0384C45.1656 29.4659 45.3061 29.9824 45.5021 30.6989C46.1612 33.0861 46.9926 35.4224 47.9899 37.6893C48.9895 35.4227 49.8229 33.0864 50.4836 30.6989C50.6816 29.9844 50.8201 29.4659 51.0239 29.0364C51.6533 27.7163 52.6271 27.5362 53.8542 27.6411C55.3484 27.7717 56.3776 29.8558 56.5656 31.2966C56.7239 32.5019 56.6923 34.107 56.4726 36.1535H56.5656C56.9911 36.1535 57.8046 36.2326 58.1529 36.4701C59.2791 37.2301 59.3444 39.4765 58.713 41.2459C57.8956 43.5417 54.3391 45.7841 53.9373 49.4792C53.682 51.8087 54.1253 53.1802 54.8299 55.4127C55.6136 57.8966 56.6111 59.3374 57.9055 61.3285C59.7224 64.1349 61.6006 67.0384 61.6006 70.5118C61.6006 74.6799 60.2667 77.9634 57.6344 80.2711C55.3544 82.2661 51.9779 83.5763 47.9998 83.5783Z" stroke="white" stroke-width="4" stroke-linecap="round" stroke-linejoin="round"/>
</svg>
