<svg width="96" height="95" viewBox="0 0 96 95" fill="none" xmlns="http://www.w3.org/2000/svg">
<path d="M50.0329 10.5072C49.4721 10.0087 48.7479 9.7334 47.9976 9.7334C47.2472 9.7334 46.523 10.0087 45.9622 10.5072C42.201 13.8433 39.4372 18.1559 37.9775 22.9669C36.5178 27.7778 36.4191 32.8991 37.6924 37.7627C31.6641 34.2011 24.6767 32.604 17.6997 33.1932C17.2856 33.2273 16.8823 33.343 16.5131 33.5336C16.1438 33.7242 15.816 33.986 15.5484 34.3039C15.2809 34.6218 15.0788 34.9896 14.954 35.3859C14.8292 35.7822 14.7841 36.1993 14.8212 36.6132C15.4102 43.097 18.4502 49.5332 22.6634 54.5207C21.01 54.4128 19.3508 54.4287 17.6997 54.5682C17.2856 54.6023 16.8823 54.7179 16.5131 54.9086C16.1438 55.0992 15.816 55.361 15.5484 55.6789C15.2809 55.9968 15.0788 56.3646 14.954 56.7609C14.8292 57.1572 14.7841 57.5743 14.8212 57.9882C15.5062 65.506 18.9766 72.4962 24.5511 77.5864C30.1256 82.6767 37.4015 85.4994 44.9504 85.5002H51.0447C58.592 85.4983 65.8662 82.6758 71.4396 77.5866C77.013 72.4974 80.4832 65.5091 81.1692 57.993C81.207 57.5787 81.1623 57.1611 81.0378 56.7642C80.9133 56.3673 80.7114 55.999 80.4438 55.6806C80.1761 55.3622 79.8481 55.0999 79.4785 54.909C79.109 54.7181 78.7053 54.6023 78.2907 54.5682C76.6396 54.4287 74.9804 54.4128 73.3269 54.5207C77.5402 49.5332 80.5802 43.097 81.1644 36.6132C81.2009 36.1998 81.1555 35.7833 81.0307 35.3875C80.906 34.9918 80.7043 34.6245 80.4374 34.3068C80.1704 33.9891 79.8434 33.7272 79.475 33.5361C79.1066 33.345 78.7042 33.2285 78.2907 33.1932C71.3153 32.605 64.3296 34.202 58.3027 37.7627C59.5766 32.8995 59.4786 27.7785 58.0198 22.9676C56.5609 18.1567 53.7933 13.8438 50.0329 10.5072ZM47.9999 68.5332C43.9373 62.8977 38.2442 58.6436 31.6884 56.3447L31.5222 56.2212C25.8174 52.3452 20.9914 45.1252 19.7707 37.8387C26.9203 37.652 33.8879 40.1076 39.3407 44.7357C42.9459 47.79 43.9387 50.5782 44.8269 53.0862C45.1499 53.9887 45.4587 54.858 45.8719 55.6845C46.0689 56.0797 46.3722 56.4122 46.7477 56.6445C47.1231 56.8769 47.556 57.0001 47.9976 57.0001C48.4391 57.0001 48.872 56.8769 49.2475 56.6445C49.623 56.4122 49.9262 56.0797 50.1232 55.6845C50.5364 54.858 50.8452 53.9887 51.1682 53.0815C52.0564 50.583 53.0492 47.79 56.6592 44.7357C62.1101 40.107 69.0758 37.6498 76.2244 37.834C75.0037 45.1252 70.1777 52.3405 64.4729 56.2212L64.3067 56.3447C57.7526 58.6445 52.0613 62.8985 47.9999 68.5332ZM44.9504 80.7502C38.8742 80.7483 32.9983 78.5774 28.3804 74.6283C23.7625 70.6792 20.706 65.2113 19.7612 59.209C25.066 59.0729 30.307 60.389 34.9181 63.0152C39.5292 65.6414 43.335 69.4777 45.9242 74.1097C46.1303 74.4786 46.4311 74.7859 46.7956 74.9997C47.16 75.2136 47.575 75.3264 47.9976 75.3264C48.4202 75.3264 48.8351 75.2136 49.1996 74.9997C49.564 74.7859 49.8648 74.4786 50.0709 74.1097C52.6601 69.4777 56.4659 65.6414 61.077 63.0152C65.6881 60.389 70.9292 59.0729 76.2339 59.209C75.289 65.2121 72.2318 70.6806 67.613 74.6298C62.9941 78.579 57.117 80.7494 51.0399 80.7502H44.9504ZM47.9952 46.6262C43.8741 42.4181 41.5661 36.7627 41.5661 30.8728C41.5661 24.9829 43.8741 19.3275 47.9952 15.1195C52.1163 19.3275 54.4243 24.9829 54.4243 30.8728C54.4243 36.7627 52.1163 42.4181 47.9952 46.6262Z" fill="white"/>
</svg>
