<svg width="95" height="95" viewBox="0 0 95 95" fill="none" xmlns="http://www.w3.org/2000/svg">
<path d="M47.5 15V67M47.5 80V67M47.5 67L57 76.75M47.5 67L38 76.75M57 18.25L47.5 28L38 18.25" stroke="white" stroke-width="5" stroke-linecap="round"/>
<path d="M19.0805 30.9462L30.4483 37.5677M30.4483 37.5677L64.5517 57.4323M30.4483 37.5677L26.8448 24M30.4483 37.5677L17 41.2032M64.5517 57.4323L75.9195 64.0538M64.5517 57.4323L78 53.7968M64.5517 57.4323L68.1552 71" stroke="white" stroke-width="5" stroke-linecap="round"/>
<path d="M75.9195 30.9462L64.5517 37.5677M64.5517 37.5677L30.4483 57.4323M64.5517 37.5677L68.1552 24M64.5517 37.5677L78 41.2032M30.4483 57.4323L19.0805 64.0538M30.4483 57.4323L17 53.7968M30.4483 57.4323L26.8448 71" stroke="white" stroke-width="5" stroke-linecap="round"/>
</svg>
