<svg width="90" height="90" viewBox="0 0 90 90" fill="none" xmlns="http://www.w3.org/2000/svg">
<path fill-rule="evenodd" clip-rule="evenodd" d="M45 11C43.0874 11 41.3263 11.4753 39.398 12.2728C37.5361 13.0428 35.3735 14.1777 32.6806 15.5909L26.1415 19.0224C22.8365 20.7568 20.1916 22.1448 18.1494 23.5086C16.0337 24.9215 14.4042 26.4092 13.2175 28.4244C12.0348 30.4329 11.5028 32.6077 11.2476 35.1976C11 37.7116 11 40.8034 11 44.6918V45.3081C11 49.1965 11 52.2884 11.2476 54.8024C11.5028 57.3923 12.0348 59.5672 13.2175 61.5756C14.4042 63.5908 16.0337 65.0785 18.1494 66.4914C20.1915 67.8552 22.8362 69.2431 26.141 70.9773L32.6805 74.4091C35.3733 75.8222 37.5361 76.9572 39.398 77.7272C41.3263 78.5247 43.0874 79 45 79C46.9126 79 48.6737 78.5247 50.602 77.7272C52.4639 76.9572 54.6265 75.8223 57.3193 74.4092L63.8584 70.9776C67.1635 69.2432 69.8084 67.8553 71.8506 66.4914C73.9663 65.0785 75.5958 63.5908 76.7825 61.5756C77.9652 59.5672 78.4972 57.3923 78.7524 54.8024C79.0001 52.2884 79 49.1966 79 45.3082V44.6918C79 40.8034 79.0001 37.7116 78.7524 35.1976C78.4973 32.6077 77.9652 30.4329 76.7825 28.4244C75.5958 26.4092 73.9663 24.9215 71.8506 23.5086C69.8084 22.1448 67.1635 20.7568 63.8584 19.0224L57.3195 15.5909C54.6266 14.1777 52.464 13.0428 50.602 12.2728C48.6737 11.4753 46.9126 11 45 11ZM34.7867 19.8434C37.6007 18.3667 39.5727 17.3344 41.2111 16.6568C42.8058 15.9973 43.9261 15.7442 45 15.7442C46.0739 15.7442 47.1942 15.9973 48.7889 16.6568C50.4273 17.3344 52.3993 18.3667 55.2133 19.8434L61.5389 23.1629C64.9853 24.9716 67.4067 26.2457 69.2159 27.4539C70.1084 28.0499 70.8098 28.6034 71.376 29.1599L45 42.3479L18.624 29.1599C19.1902 28.6034 19.8916 28.0499 20.7841 27.4539C22.5933 26.2457 25.0147 24.9715 28.4611 23.1629L34.7867 19.8434ZM16.3378 33.321C16.1781 33.9974 16.0573 34.7656 15.9689 35.6627C15.7468 37.9172 15.7442 40.7758 15.7442 44.815V45.185C15.7442 49.2242 15.7468 52.0828 15.9689 54.3373C16.1862 56.5422 16.5988 57.9681 17.3056 59.1683C18.0083 60.3618 19.0249 61.3713 20.7841 62.5461C22.5933 63.7543 25.0147 65.0285 28.4611 66.8371L34.7867 70.1566C37.6007 71.6333 39.5727 72.6656 41.2111 73.3432C41.7284 73.5571 42.1958 73.7283 42.6279 73.8619V46.466L16.3378 33.321ZM47.3721 73.8619C47.8042 73.7283 48.2716 73.5571 48.7889 73.3432C50.4273 72.6656 52.3993 71.6333 55.2133 70.1566L61.5389 66.8371C64.9853 65.0285 67.4067 63.7543 69.2159 62.5461C70.9752 61.3713 71.9917 60.3618 72.6944 59.1683C73.4012 57.9681 73.8138 56.5422 74.0311 54.3373C74.2532 52.0828 74.2558 49.2242 74.2558 45.185V44.815C74.2558 40.7758 74.2532 37.9172 74.0311 35.6627C73.9427 34.7656 73.8219 33.9974 73.6622 33.321L47.3721 46.466V73.8619Z" fill="white"/>
</svg>
