<svg width="95" height="95" viewBox="0 0 95 95" fill="none" xmlns="http://www.w3.org/2000/svg">
<g id="Linear / Weather / Snowflake">
<g id="&#240;&#159;&#166;&#134; icon &#34;truck&#34;">
<path id="Vector" d="M28.2684 72.2975C32.627 72.2975 36.1603 68.7643 36.1603 64.4056C36.1603 60.0469 32.627 56.5137 28.2684 56.5137C23.9098 56.5137 20.3765 60.0469 20.3765 64.4056C20.3765 68.7643 23.9098 72.2975 28.2684 72.2975Z" stroke="white" stroke-width="5" stroke-miterlimit="1.5" stroke-linecap="round" stroke-linejoin="round"/>
<path id="Vector_2" d="M67.7279 72.2975C72.0866 72.2975 75.6198 68.7643 75.6198 64.4056C75.6198 60.0469 72.0866 56.5137 67.7279 56.5137C63.3692 56.5137 59.8359 60.0469 59.8359 64.4056C59.8359 68.7643 63.3692 72.2975 67.7279 72.2975Z" stroke="white" stroke-width="5" stroke-miterlimit="1.5" stroke-linecap="round" stroke-linejoin="round"/>
<path id="Vector_3" d="M55.8902 64.4056V23.3676C55.8902 22.06 54.8303 21 53.5226 21H10.9062C9.59858 21 8.53857 22.06 8.53857 23.3676V62.0381C8.53857 63.3458 9.59858 64.4056 10.9062 64.4056H18.9954" stroke="white" stroke-width="5" stroke-linecap="round"/>
<path id="Vector_4" d="M55.8917 64.4053H36.3594" stroke="white" stroke-width="5" stroke-linecap="round"/>
<path id="Vector_5" d="M55.8901 32.8369H78.0274C78.963 32.8369 79.811 33.3879 80.191 34.2429L87.2539 50.1345C87.3884 50.4375 87.4579 50.765 87.4579 51.0961V62.0371C87.4579 63.3448 86.398 64.4047 85.0903 64.4047H77.593" stroke="white" stroke-width="5" stroke-linecap="round"/>
<path id="Vector_6" d="M55.8901 64.4053H59.8361" stroke="white" stroke-width="5" stroke-linecap="round"/>
</g>
</g>
</svg>
