<svg width="96" height="95" viewBox="0 0 96 95" fill="none" xmlns="http://www.w3.org/2000/svg">
<path fill-rule="evenodd" clip-rule="evenodd" d="M47.7764 4.94824H48.223C50.8425 4.94822 53.2658 4.9482 55.5052 4.97649C55.6396 4.95787 55.7768 4.94824 55.9163 4.94824C56.0859 4.94824 56.2521 4.96246 56.4139 4.98976C60.0049 5.04974 63.1053 5.19631 65.7687 5.5544C70.4096 6.17835 74.1658 7.49298 77.1281 10.4552C80.0904 13.4175 81.405 17.1738 82.0289 21.8146C82.6352 26.324 82.6352 32.0859 82.6351 39.3604V47.7236C82.6351 48.9675 82.6351 50.1672 82.6321 51.324C82.6341 51.3686 82.6351 51.4135 82.6351 51.4587C82.6351 51.5096 82.6338 51.5602 82.6313 51.6105C82.6144 57.0889 82.5229 61.5949 82.0289 65.2694C81.405 69.9102 80.0904 73.6665 77.1281 76.6287C75.5231 78.2337 73.685 79.355 71.5995 80.1449L74.405 85.756C75.1383 87.2225 74.5438 89.0057 73.0773 89.739C71.6108 90.4722 69.8276 89.8778 69.0943 88.4113L65.6607 81.544C61.1674 82.1359 55.4395 82.1358 48.223 82.1357H47.7764C40.5599 82.1358 34.832 82.1359 30.3387 81.544L26.905 88.4113C26.1718 89.8778 24.3885 90.4722 22.922 89.739C21.4555 89.0057 20.8611 87.2225 21.5943 85.756L24.3999 80.1449C22.3143 79.355 20.4763 78.2337 18.8713 76.6287C15.909 73.6665 14.5944 69.9102 13.9704 65.2694C13.4764 61.5949 13.385 57.0889 13.3681 51.6105C13.3655 51.5602 13.3643 51.5096 13.3643 51.4587C13.3643 51.4135 13.3653 51.3686 13.3673 51.324C13.3642 50.1673 13.3642 48.9676 13.3643 47.7236V39.3603C13.3642 32.0859 13.3641 26.324 13.9704 21.8146C14.5944 17.1738 15.909 13.4175 18.8713 10.4552C21.8335 7.49298 25.5898 6.17835 30.2306 5.5544C32.8941 5.19631 35.9945 5.04974 39.5854 4.98976C39.7472 4.96246 39.9135 4.94824 40.083 4.94824C40.2225 4.94824 40.3598 4.95787 40.4942 4.97649C42.7336 4.9482 45.1569 4.94822 47.7764 4.94824ZM37.1683 10.9872C34.8229 11.0643 32.7988 11.2 31.0218 11.439C27.0393 11.9744 24.7449 12.9785 23.0697 14.6537C21.3945 16.3289 20.3904 18.6233 19.855 22.6058C19.3081 26.6736 19.3018 32.0358 19.3018 39.5837V47.5003C19.3018 47.8344 19.3018 48.1643 19.3018 48.4899H76.6975C76.6976 48.1643 76.6976 47.8344 76.6976 47.5003V39.5837C76.6976 32.0358 76.6913 26.6736 76.1444 22.6058C75.609 18.6233 74.6049 16.3289 72.9296 14.6537C71.2544 12.9785 68.96 11.9744 64.9776 11.439C63.2005 11.2 61.1765 11.0643 58.8311 10.9872C58.2838 16.4867 53.6433 20.7816 47.9997 20.7816C42.3561 20.7816 37.7156 16.4867 37.1683 10.9872ZM52.8471 10.8931C52.3858 13.1479 50.3908 14.8441 47.9997 14.8441C45.6085 14.8441 43.6135 13.1479 43.1522 10.8931C44.6608 10.8861 46.273 10.8857 47.9997 10.8857C49.7263 10.8857 51.3386 10.8861 52.8471 10.8931ZM76.6749 54.4274H19.3244C19.3675 58.5189 19.4926 61.7827 19.855 64.4782C20.3904 68.4607 21.3945 70.7551 23.0697 72.4303C24.7449 74.1055 27.0394 75.1096 31.0218 75.645C35.0896 76.1919 40.4518 76.1982 47.9997 76.1982C55.5475 76.1982 60.9097 76.1919 64.9776 75.645C68.96 75.1096 71.2544 74.1055 72.9296 72.4303C74.6049 70.7551 75.609 68.4607 76.1444 64.4782C76.5068 61.7827 76.6318 58.5189 76.6749 54.4274ZM25.2393 63.3337C25.2393 61.6941 26.5684 60.3649 28.208 60.3649H34.1455C35.7851 60.3649 37.1143 61.6941 37.1143 63.3337C37.1143 64.9733 35.7851 66.3024 34.1455 66.3024H28.208C26.5684 66.3024 25.2393 64.9733 25.2393 63.3337ZM58.8851 63.3337C58.8851 61.6941 60.2143 60.3649 61.8538 60.3649H67.7913C69.4309 60.3649 70.7601 61.6941 70.7601 63.3337C70.7601 64.9733 69.4309 66.3024 67.7913 66.3024H61.8538C60.2143 66.3024 58.8851 64.9733 58.8851 63.3337Z" fill="white"/>
</svg>
