<svg width="90" height="150" viewBox="0 0 90 150" fill="none" xmlns="http://www.w3.org/2000/svg">
<path d="M0 0H90V110.309L45 150L0 110.309V0Z" fill="#298619"/>
<path fill-rule="evenodd" clip-rule="evenodd" d="M18.875 83.8153C18.875 74.3558 18.875 69.626 19.9918 68.0348C21.1086 66.4436 25.5559 64.9213 34.4504 61.8767L36.1449 61.2966C40.7814 59.7096 43.0996 58.916 45.5 58.916C47.9004 58.916 50.2186 59.7096 54.8551 61.2966L56.5496 61.8767C65.4441 64.9213 69.8914 66.4436 71.0082 68.0348C72.125 69.626 72.125 74.3558 72.125 83.8153V88.4738C72.125 105.153 59.5847 113.247 51.7168 116.684C49.5825 117.617 48.5153 118.083 45.5 118.083C42.4847 118.083 41.4175 117.617 39.2832 116.684C31.4153 113.247 18.875 105.153 18.875 88.4738V83.8153ZM51.4167 79.6243C51.4167 82.892 48.7677 85.541 45.5 85.541C42.2323 85.541 39.5833 82.892 39.5833 79.6243C39.5833 76.3567 42.2323 73.7077 45.5 73.7077C48.7677 73.7077 51.4167 76.3567 51.4167 79.6243ZM45.5 103.291C57.3333 103.291 57.3333 100.642 57.3333 97.3744C57.3333 94.1067 52.0354 91.4577 45.5 91.4577C38.9646 91.4577 33.6667 94.1067 33.6667 97.3744C33.6667 100.642 33.6667 103.291 45.5 103.291Z" fill="white"/>
</svg>
