<svg width="20" height="20" viewBox="0 0 20 20" fill="none" xmlns="http://www.w3.org/2000/svg">
<g id="&#226;&#158;&#161;&#239;&#184;&#143;Right: Icon">
<path id="Vector (Stroke)" fill-rule="evenodd" clip-rule="evenodd" d="M2.49989 11.9453C2.80672 11.9453 3.05545 12.194 3.05545 12.5009C3.05545 13.6951 3.05663 14.5349 3.14202 15.17C3.22527 15.7892 3.37927 16.1301 3.62496 16.3758C3.87065 16.6215 4.21156 16.7755 4.83074 16.8587C5.4659 16.9441 6.30568 16.9453 7.49989 16.9453H12.4999C13.6941 16.9453 14.5339 16.9441 15.169 16.8587C15.7882 16.7755 16.1291 16.6215 16.3748 16.3758C16.6205 16.1301 16.7745 15.7892 16.8578 15.17C16.9432 14.5349 16.9443 13.6951 16.9443 12.5009C16.9443 12.194 17.1931 11.9453 17.4999 11.9453C17.8067 11.9453 18.0554 12.194 18.0554 12.5009V12.542C18.0555 13.6856 18.0555 14.6003 17.959 15.3181C17.8592 16.0605 17.647 16.6749 17.1605 17.1615C16.674 17.648 16.0595 17.8601 15.3171 17.9599C14.5993 18.0564 13.6846 18.0564 12.541 18.0564H7.45874C6.31517 18.0564 5.4005 18.0564 4.68269 17.9599C3.9403 17.8601 3.32583 17.648 2.83929 17.1615C2.35274 16.6749 2.14063 16.0605 2.04082 15.3181C1.94431 14.6003 1.94432 13.6856 1.94434 12.542C1.94434 12.5283 1.94434 12.5146 1.94434 12.5009C1.94434 12.194 2.19307 11.9453 2.49989 11.9453Z" fill="white"/>
<path id="Vector (Stroke)_2" fill-rule="evenodd" clip-rule="evenodd" d="M10.0002 13.8887C10.1562 13.8887 10.305 13.8231 10.4102 13.708L13.7436 10.0622C13.9506 9.83571 13.9349 9.4843 13.7084 9.27727C13.482 9.07023 13.1306 9.08597 12.9235 9.31241L10.5558 11.9022V2.49978C10.5558 2.19296 10.307 1.94423 10.0002 1.94423C9.6934 1.94423 9.44467 2.19296 9.44467 2.49978V11.9022L7.0769 9.31241C6.86987 9.08597 6.51846 9.07023 6.29202 9.27727C6.06557 9.4843 6.04984 9.83571 6.25687 10.0622L9.59021 13.708C9.69545 13.8231 9.84424 13.8887 10.0002 13.8887Z" fill="white"/>
</g>
</svg>
