<svg width="96" height="95" viewBox="0 0 96 95" fill="none" xmlns="http://www.w3.org/2000/svg">
<path d="M46.1615 41.7035C49.7431 38.1219 51.9583 33.174 51.9583 27.7087C51.9583 16.778 43.0973 7.91699 32.1667 7.91699C26.7013 7.91699 21.7534 10.1323 18.1718 13.7138M46.1615 41.7035C42.5799 45.2851 37.632 47.5003 32.1667 47.5003C21.236 47.5003 12.375 38.6393 12.375 27.7087C12.375 22.2433 14.5903 17.2954 18.1718 13.7138M46.1615 41.7035L18.1718 13.7138" stroke="white" stroke-width="5" stroke-linecap="round"/>
<path d="M87.5833 67.2917C87.5833 62.2265 85.6511 57.1614 81.7865 53.2968C74.0574 45.5677 61.526 45.5677 53.7968 53.2968C49.9323 57.1614 48 62.2265 48 67.2917M87.5833 67.2917C87.5833 72.3568 85.6511 77.4219 81.7865 81.2865C74.0574 89.0156 61.526 89.0156 53.7968 81.2865C49.9323 77.4219 48 72.3568 48 67.2917M87.5833 67.2917H48" stroke="white" stroke-width="5" stroke-linecap="round"/>
</svg>
