<svg width="96" height="95" viewBox="0 0 96 95" fill="none" xmlns="http://www.w3.org/2000/svg">
<path fill-rule="evenodd" clip-rule="evenodd" d="M80.4866 38.7429C78.299 36.7463 75.4444 35.6391 72.4827 35.6383C69.5209 35.6391 66.6658 36.7463 64.4782 38.7429C62.2906 40.7395 60.9279 43.4814 60.6573 46.4307C60.3868 49.3801 61.2278 52.3241 63.0156 54.6854C64.6343 56.8233 66.9232 58.3439 69.5032 59.0129V67.354C69.5004 70.1536 68.3869 72.8377 66.4073 74.8174C64.4277 76.797 61.7435 77.9105 58.9439 77.9133H47.9418C45.1421 77.9105 42.458 76.797 40.4783 74.8174C38.4987 72.8377 37.3853 70.1536 37.3824 67.354V64.3703C42.6871 63.6704 47.5874 61.1221 51.2105 57.1583C55.0398 52.969 57.1666 47.5007 57.1741 41.8251V20.9261C57.1812 19.4656 56.7227 18.0409 55.8652 16.8587C55.0086 15.6778 53.7984 14.8003 52.4099 14.3531L43.2732 11.2679L43.2628 11.2645C42.5122 11.0202 41.6952 11.0837 40.9914 11.4412C40.2911 11.797 39.7597 12.4148 39.5127 13.1602C39.3849 13.5267 39.3309 13.9149 39.3538 14.3025C39.3769 14.6939 39.478 15.0768 39.6511 15.4287C39.8242 15.7805 40.0659 16.0942 40.3619 16.3513C40.6569 16.6076 41 16.8025 41.3711 16.9248L41.375 16.926L50.5604 20.0143L50.5696 20.0172C50.759 20.0768 50.9242 20.1959 51.0406 20.3568C51.157 20.5178 51.2184 20.7119 51.2157 20.9105V41.8237C51.2157 46.2827 49.4444 50.559 46.2915 53.712C43.1385 56.8649 38.8622 58.6362 34.4032 58.6362C29.9443 58.6362 25.668 56.8649 22.515 53.712C19.3621 50.559 17.5907 46.2827 17.5907 41.8237L17.5908 20.9237L17.5907 20.9105C17.588 20.7119 17.6495 20.5178 17.7659 20.3568C17.8823 20.1959 18.0475 20.0768 18.2369 20.0172L18.2461 20.0143L27.4354 16.9248C27.8065 16.8025 28.1496 16.6076 28.4446 16.3513C28.7406 16.0942 28.9823 15.7805 29.1554 15.4287C29.3285 15.0768 29.4296 14.6939 29.4527 14.3025C29.4756 13.9149 29.4216 13.5267 29.2938 13.1602C29.0468 12.4148 28.5154 11.797 27.8151 11.4412C27.1112 11.0837 26.2943 11.0201 25.5437 11.2645L16.3965 14.3531C15.008 14.8003 13.7978 15.6778 12.9413 16.8587C12.0837 18.041 11.6252 19.4658 11.6324 20.9263L11.6324 41.8237L11.6324 41.8251C11.6399 47.5007 13.7666 52.969 17.5959 57.1583C21.2191 61.1221 26.1193 63.6704 31.4241 64.3703V67.355L31.4241 67.3565C31.4308 71.7346 33.1729 75.9314 36.2686 79.0271C39.3644 82.1228 43.5612 83.865 47.9392 83.8717H58.9464C63.3245 83.865 67.5213 82.1228 70.617 79.0271C73.7128 75.9314 75.4549 71.7346 75.4616 67.3565V59.0129C78.0416 58.3439 80.3305 56.8233 81.9492 54.6854C83.737 52.3241 84.578 49.3801 84.3075 46.4307C84.0369 43.4814 82.6742 40.7395 80.4866 38.7429ZM70.5032 58.2113V58.2112C68.1696 57.7788 66.0511 56.5972 64.4611 54.8598C66.0511 56.5972 68.1696 57.7788 70.5032 58.2113ZM32.4241 63.4758V63.4758C27.6956 63.0442 23.2573 61.081 19.769 57.9138C23.2573 61.081 27.6956 63.0442 32.4241 63.4758ZM48.6563 58.2518C45.2286 61.2206 40.9403 63.0597 36.3824 63.4758V63.4758C40.9403 63.0598 45.2286 61.2207 48.6563 58.2518ZM40.3498 14.1951C40.3503 14.2113 40.3511 14.2274 40.352 14.2436C40.352 14.2436 40.352 14.2436 40.352 14.2435C40.3511 14.2274 40.3503 14.2113 40.3498 14.1951ZM40.4716 14.8093C40.4942 14.8697 40.5198 14.9291 40.5483 14.9871C40.6626 15.2194 40.8222 15.4266 41.0177 15.5964C41.2131 15.7661 41.4406 15.8952 41.6866 15.9758C41.4406 15.8951 41.2131 15.7661 41.0177 15.5963C40.8222 15.4265 40.6626 15.2194 40.5483 14.9871C40.5198 14.929 40.4941 14.8697 40.4716 14.8093ZM51.8508 19.7707C51.8205 19.7288 51.7886 19.6883 51.7553 19.6492C51.7886 19.6883 51.8205 19.7288 51.8508 19.7707M16.6114 20.6162C16.6564 20.3123 16.7738 20.022 16.9557 19.7707C17.1981 19.4356 17.5421 19.1875 17.9366 19.0633L27.1199 15.9758C27.3659 15.8951 27.5933 15.7661 27.7888 15.5963C27.9843 15.4265 28.1438 15.2194 28.2582 14.9871C28.2816 14.9394 28.3031 14.8909 28.3225 14.8417C28.3031 14.8909 28.2816 14.9395 28.2582 14.9871C28.1438 15.2194 27.9843 15.4266 27.7888 15.5964C27.5933 15.7661 27.3659 15.8952 27.1199 15.9758L17.9366 19.0633C17.5421 19.1875 17.1981 19.4356 16.9557 19.7707C16.7738 20.0221 16.6564 20.3123 16.6114 20.6162ZM72.4796 53.4508C71.3083 53.4503 70.1634 53.1027 69.1895 52.4519C68.2148 51.8007 67.4551 50.875 67.0065 49.7919C66.5579 48.7089 66.4405 47.5172 66.6692 46.3674C66.8979 45.2177 67.4624 44.1616 68.2913 43.3327C69.1202 42.5037 70.1763 41.9393 71.3261 41.7106C72.4758 41.4819 73.6676 41.5992 74.7506 42.0478C75.8336 42.4964 76.7593 43.2561 77.4106 44.2308C78.0614 45.2048 78.4089 46.3497 78.4095 47.521C78.4019 49.0913 77.7747 50.5952 76.6643 51.7056C75.5539 52.8161 74.05 53.4432 72.4796 53.4508ZM66.0826 50.1746C65.5583 48.9088 65.4211 47.516 65.6884 46.1723L66.0826 50.1746ZM75.6323 41.3543C75.4695 41.2711 75.3031 41.1942 75.1333 41.1239C73.8675 40.5996 72.4747 40.4624 71.131 40.7297C69.7873 40.997 68.553 41.6568 67.5842 42.6256C68.553 41.6568 69.7873 40.9971 71.131 40.7298C72.4747 40.4625 73.8675 40.5997 75.1333 41.124C75.3031 41.1943 75.4695 41.2711 75.6323 41.3543Z" fill="white"/>
</svg>
