<svg width="96" height="95" viewBox="0 0 96 95" fill="none" xmlns="http://www.w3.org/2000/svg">
<path fill-rule="evenodd" clip-rule="evenodd" d="M47.0503 51.3096C47.6802 51.3096 48.2843 51.5598 48.7297 52.0052C49.1751 52.4506 49.4253 53.0547 49.4253 53.6846V79.8096C49.4253 80.4395 49.1751 81.0436 48.7297 81.489C48.2843 81.9343 47.6802 82.1846 47.0503 82.1846C46.4204 82.1846 45.8163 81.9343 45.3709 81.489C44.9255 81.0436 44.6753 80.4395 44.6753 79.8096V53.6846C44.6753 53.0547 44.9255 52.4506 45.3709 52.0052C45.8163 51.5598 46.4204 51.3096 47.0503 51.3096Z" fill="white"/>
<path fill-rule="evenodd" clip-rule="evenodd" d="M11.8526 30.6141C13.7526 36.5516 17.4576 42.5318 22.1363 45.9898C27.5798 50.0178 32.4913 51.3193 36.4718 51.0581C38.2886 50.9578 40.066 50.4897 41.6966 49.6822C43.3271 48.8747 44.7767 47.7446 45.9576 46.3603C47.9288 44.0471 48.5273 40.6033 47.4728 36.6228C46.4183 32.6518 43.7536 28.3816 39.6353 24.8761C35.4838 21.3373 29.3611 18.1643 23.6896 16.6348C20.8586 15.8748 18.2746 15.5566 16.1751 15.7323C14.0708 15.9128 12.7361 16.5588 11.9761 17.4471C11.1591 18.4066 10.5843 20.0738 10.5273 22.4821C10.4703 24.8476 10.9168 27.6691 11.8526 30.6141ZM5.77257 22.3728C5.84382 19.4041 6.55157 16.4923 8.35657 14.3738C10.2186 12.1888 12.9593 11.2436 15.7713 11.0013C18.5976 10.7638 21.7658 11.2056 24.9198 12.0558C31.2231 13.7516 37.9871 17.2381 42.7133 21.2613C47.4728 25.3178 50.7266 30.3908 52.0566 35.4068C53.3866 40.4133 52.8356 45.6098 49.5676 49.4478C47.975 51.3148 46.0212 52.8403 43.8237 53.9326C41.6262 55.0248 39.2304 55.6611 36.7806 55.8033C31.4606 56.1501 25.4661 54.3688 19.3101 49.8183C13.6243 45.6003 9.43957 38.6653 7.33057 32.0533C6.27132 28.7283 5.70132 25.3748 5.77257 22.3633" fill="white"/>
<path fill-rule="evenodd" clip-rule="evenodd" d="M82.8748 44.3031C80.552 49.6374 76.695 54.7959 72.1303 57.3086C61.5995 63.1036 54.1848 58.6861 51.6198 54.5964C50.5415 52.8721 50.304 49.6849 51.6673 45.9514C52.9973 42.3176 55.7048 38.5936 59.7755 36.0429C63.9698 33.4209 69.8218 31.5921 75.004 31.0554C77.5928 30.7941 79.8823 30.8654 81.635 31.2454C83.4495 31.6396 84.2903 32.2761 84.6038 32.7749C84.979 33.3734 85.2688 34.7319 85.0028 36.9691C84.7463 39.1066 84.0243 41.6669 82.8748 44.3031ZM89.7148 37.5344C90.0283 34.9504 89.8763 32.2476 88.6318 30.2526C87.3208 28.1626 84.9743 27.1129 82.642 26.6046C80.2433 26.0821 77.417 26.0346 74.5195 26.3339C68.734 26.9276 62.16 28.9464 57.258 32.0196C52.6429 34.9001 49.1093 39.2253 47.207 44.3221C45.5778 48.7824 45.4305 53.6606 47.5918 57.1139C51.5153 63.3791 61.7135 68.4616 74.4198 61.4696C80.2338 58.2681 84.6703 52.0789 87.2305 46.1984C88.5273 43.2296 89.3965 40.2181 89.7195 37.5344" fill="white"/>
<path fill-rule="evenodd" clip-rule="evenodd" d="M42.8228 50.4213C39.7942 46.6348 36.299 43.2466 32.4203 40.3371L29.0003 37.7721C28.7508 37.5849 28.5406 37.3505 28.3817 37.0821C28.2228 36.8137 28.1183 36.5167 28.0742 36.2079C28.0301 35.8992 28.0472 35.5848 28.1246 35.2826C28.202 34.9805 28.3382 34.6966 28.5253 34.4471C28.7124 34.1976 28.9469 33.9873 29.2152 33.8284C29.4836 33.6695 29.7807 33.565 30.0894 33.5209C30.3982 33.4768 30.7126 33.494 31.0147 33.5714C31.3169 33.6488 31.6008 33.7849 31.8503 33.9721L35.2703 36.5371C39.4598 39.6863 43.2503 43.3533 46.5278 47.4526C46.8984 47.9459 47.0625 48.5641 46.9852 49.1763C46.908 49.7885 46.5956 50.3466 46.114 50.7325C45.6325 51.1183 45.0197 51.3016 44.4054 51.2435C43.7911 51.1855 43.2235 50.8906 42.8228 50.4213ZM53.4818 58.9286C56.5099 55.8979 59.8723 53.2208 63.5043 50.9486L67.309 48.5736C67.5735 48.4083 67.8029 48.1925 67.9839 47.9386C68.165 47.6846 68.2943 47.3975 68.3645 47.0936C68.4346 46.7897 68.4442 46.475 68.3927 46.1674C68.3412 45.8598 68.2296 45.5653 68.0643 45.3008C67.899 45.0363 67.6832 44.807 67.4293 44.6259C67.1754 44.4448 66.8882 44.3155 66.5843 44.2454C66.2804 44.1753 65.9657 44.1657 65.6581 44.2172C65.3505 44.2687 65.056 44.3803 64.7915 44.5456L60.9915 46.9206C57.0534 49.3816 53.4073 52.2819 50.1235 55.5656C49.6776 56.0109 49.4268 56.6152 49.4264 57.2454C49.4259 57.8756 49.6758 58.4802 50.1212 58.9262C50.5665 59.3722 51.1707 59.6229 51.801 59.6234C52.4312 59.6238 53.0358 59.3739 53.4818 58.9286Z" fill="white"/>
</svg>
