<svg width="96" height="95" viewBox="0 0 96 95" fill="none" xmlns="http://www.w3.org/2000/svg">
<path d="M39.0885 9.87299L72.3809 28.9748M39.0885 9.87299L10.9931 58.3678C5.68895 67.5232 8.83667 79.2301 18.0237 84.5159C27.2108 89.8018 38.9582 86.6649 44.2624 77.5096L50.1812 67.2933M39.0885 9.87299L35.7798 7.91699M72.3809 28.9748L63.4454 44.3982M72.3809 28.9748L75.7082 30.8901M63.4454 44.3982L56.6632 56.1048M63.4454 44.3982L53.3199 38.5724M56.6632 56.1048L50.1812 67.2933M56.6632 56.1048L40.0265 46.5328M50.1812 67.2933L39.8393 61.343" stroke="white" stroke-width="5" stroke-linecap="round"/>
<path d="M87.5833 59.0455C87.5833 63.5999 84.0389 67.292 79.6667 67.292C75.2944 67.292 71.75 63.5999 71.75 59.0455C71.75 56.1958 74.8492 52.3924 77.1694 49.9443C78.5429 48.4951 80.7904 48.4951 82.1639 49.9443C84.4841 52.3924 87.5833 56.1958 87.5833 59.0455Z" stroke="white" stroke-width="5"/>
</svg>
