<svg width="90" height="90" viewBox="0 0 90 90" fill="none" xmlns="http://www.w3.org/2000/svg">
<path d="M68.1751 30.1475L69.913 28.4096C72.7925 25.5301 77.461 25.5301 80.3404 28.4096C83.2199 31.289 83.2199 35.9575 80.3404 38.837L78.6025 40.5749M68.1751 30.1475C68.1751 30.1475 68.3924 33.8405 71.6509 37.0991C74.9095 40.3576 78.6025 40.5749 78.6025 40.5749M68.1751 30.1475L52.1978 46.1248C51.1156 47.207 50.5745 47.7481 50.1092 48.3447C49.5603 49.0485 49.0896 49.81 48.7056 50.6157C48.3801 51.2987 48.1381 52.0246 47.6542 53.4765L46.1047 58.125L45.6034 59.6289M78.6025 40.5749L62.6252 56.5522C61.543 57.6344 61.0019 58.1755 60.4053 58.6408C59.7015 59.1897 58.94 59.6604 58.1343 60.0444C57.4513 60.3699 56.7254 60.6119 55.2735 61.0958L50.625 62.6453L49.1211 63.1466M49.1211 63.1466L47.6172 63.6479C46.9027 63.8861 46.115 63.7001 45.5824 63.1676C45.0499 62.635 44.8639 61.8473 45.1021 61.1328L45.6034 59.6289M49.1211 63.1466L45.6034 59.6289" stroke="white" stroke-width="5"/>
<path d="M30 46.25C28.6193 46.25 27.5 47.3693 27.5 48.75C27.5 50.1307 28.6193 51.25 30 51.25V46.25ZM39.375 51.25C40.7557 51.25 41.875 50.1307 41.875 48.75C41.875 47.3693 40.7557 46.25 39.375 46.25V51.25ZM30 51.25H39.375V46.25H30V51.25Z" fill="white"/>
<path d="M30 31.25C28.6193 31.25 27.5 32.3693 27.5 33.75C27.5 35.1307 28.6193 36.25 30 36.25V31.25ZM54.375 36.25C55.7557 36.25 56.875 35.1307 56.875 33.75C56.875 32.3693 55.7557 31.25 54.375 31.25V36.25ZM30 36.25H54.375V31.25H30V36.25Z" fill="white"/>
<path d="M30 61.25C28.6193 61.25 27.5 62.3693 27.5 63.75C27.5 65.1307 28.6193 66.25 30 66.25V61.25ZM35.625 66.25C37.0057 66.25 38.125 65.1307 38.125 63.75C38.125 62.3693 37.0057 61.25 35.625 61.25V66.25ZM30 66.25H35.625V61.25H30V66.25Z" fill="white"/>
<path d="M74.3566 11.8934C69.9632 7.5 62.8921 7.5 48.75 7.5H41.25C27.1079 7.5 20.0368 7.5 15.6434 11.8934C11.25 16.2868 11.25 23.3579 11.25 37.5V52.5C11.25 66.6421 11.25 73.7132 15.6434 78.1066C20.0368 82.5 27.1079 82.5 41.25 82.5H48.75C62.8921 82.5 69.9632 82.5 74.3566 78.1066C77.8932 74.57 78.5829 69.2984 78.7174 60" stroke="white" stroke-width="5" stroke-linecap="round"/>
</svg>
