<svg width="96" height="95" viewBox="0 0 96 95" fill="none" xmlns="http://www.w3.org/2000/svg">
<path d="M59.8743 41.5622C59.8743 30.6312 51.457 21.7705 41.0723 21.7705C30.6876 21.7705 22.2702 30.6312 22.2702 41.5622M47.9993 75.208C66.5817 75.208 81.6452 61.2371 81.6452 41.5622H14.3535C14.3535 61.2371 29.417 75.208 47.9993 75.208Z" stroke="white" stroke-width="4"/>
<path d="M77.6862 41.5625C77.6862 35.0035 72.2118 29.6875 65.4589 29.6875C62.603 29.6875 59.9766 30.6375 57.8945 32.2327" stroke="white" stroke-width="4"/>
<path d="M65.8115 29.6872L71.749 9.89551M75.7074 35.6247L83.624 21.7705" stroke="white" stroke-width="4" stroke-linecap="round"/>
<path d="M36.1243 73.2285L32.166 85.1035H63.8327L59.8743 73.2285" stroke="white" stroke-width="4" stroke-linecap="round" stroke-linejoin="round"/>
</svg>
