<svg width="96" height="95" viewBox="0 0 96 95" fill="none" xmlns="http://www.w3.org/2000/svg">
<path d="M80.655 26.8653L47.6484 11.2205C47.3299 11.0714 46.982 10.9961 46.6305 11.0002C46.279 11.0043 45.933 11.0877 45.618 11.2443C45.303 11.4008 45.0272 11.6265 44.811 11.9046C44.5947 12.1827 44.4436 12.506 44.3689 12.8507C44.3612 12.8762 41.7208 25.1918 37.7996 37.469C36.4629 41.6772 34.9657 45.8369 33.4023 49.4906L37.6418 51.4989C42.7342 39.6382 46.7674 23.2652 48.285 16.7165L76.9732 30.2968C76.0922 34.1627 73.8337 43.6421 70.8114 53.1061C68.8584 59.2383 66.5719 65.3629 64.2294 69.7959C61.9633 74.3695 59.2439 76.618 58.6353 76.3165C55.0197 76.3932 52.4786 73.092 50.7675 68.8608C50.0478 66.9992 49.4882 65.0793 49.0947 63.122C48.7687 61.543 48.6694 60.5516 48.6618 60.5516C48.6213 60.1522 48.4779 59.7702 48.2457 59.4432C48.0136 59.1162 47.7007 58.8554 47.3378 58.6864L14.3388 43.0493C13.9628 42.8713 13.5466 42.7964 13.1324 42.8323C12.7182 42.8682 12.321 43.0136 11.981 43.2537C11.643 43.4959 11.3753 43.824 11.2052 44.2043C11.0352 44.5846 10.969 45.0034 11.0134 45.4178C11.0338 45.5354 11.5099 50.1447 13.4247 54.9662C14.7538 58.3389 17.0072 62.1664 20.6712 64.1006L53.66 79.7633L53.6753 79.7327C55.1063 80.4864 56.7308 80.977 58.6328 81C63.2084 80.7011 65.7036 76.7381 68.3543 71.9933C75.9929 57.4549 81.9001 29.5788 81.946 29.4766C82.059 28.9606 81.9935 28.4212 81.7602 27.9475C81.527 27.4738 81.1399 27.0939 80.6627 26.8704L80.655 26.8653Z" fill="white"/>
</svg>
