<svg width="96" height="95" viewBox="0 0 96 95" fill="none" xmlns="http://www.w3.org/2000/svg">
<path fill-rule="evenodd" clip-rule="evenodd" d="M82.9511 27.2795L82.6772 27.358C82.2054 25.4543 81.3834 23.6515 80.2499 22.043C78.9032 20.1319 77.1502 18.5425 75.1166 17.3889C73.0831 16.2352 70.8194 15.5459 68.488 15.3704C66.4875 15.2199 64.4797 15.4508 62.5707 16.0476C61.4208 13.354 59.5435 11.0253 57.1408 9.32795C54.4668 7.43901 51.2733 6.4248 47.9994 6.4248C44.7255 6.4248 41.532 7.43901 38.858 9.32795C36.4552 11.0253 34.5779 13.3541 33.4279 16.0478C31.5178 15.4509 29.5088 15.2204 27.5073 15.3718C25.175 15.5482 22.9106 16.2389 20.8768 17.3942C18.843 18.5495 17.0902 20.1408 15.7443 22.0538C14.6117 23.6637 13.7909 25.4678 13.3206 27.3726L13.0595 27.2978C12.6424 27.1775 12.201 27.1686 11.7794 27.272C11.3576 27.3754 10.9704 27.5876 10.6562 27.8873C10.342 28.187 10.1119 28.5639 9.98873 28.9803C9.86571 29.3962 9.85374 29.8371 9.95401 30.2592L9.95432 30.2605L21.2934 78.4332L21.2939 78.4351C21.5716 79.634 22.2482 80.7031 23.213 81.4671C24.1778 82.2312 25.3734 82.6449 26.604 82.6405L26.606 82.6405H69.3927L69.3947 82.6405C70.6254 82.6449 71.821 82.2312 72.7858 81.4671C73.7505 80.7031 74.4272 79.634 74.7048 78.4351L74.7053 78.4332L86.0413 30.2578C86.1406 29.8366 86.1281 29.3967 86.005 28.9817C85.8824 28.5685 85.6545 28.1944 85.3437 27.896C85.0341 27.5943 84.6512 27.3785 84.2327 27.2701C83.812 27.1611 83.3701 27.1643 82.9511 27.2795ZM50.0261 27.8201L62.9787 33.0033L77.8914 28.7386C77.5684 27.3301 76.9672 25.9971 76.1201 24.8193C75.103 23.4052 73.7611 22.2561 72.2073 21.4687C70.6535 20.6814 68.9333 20.2787 67.1915 20.2947C65.4497 20.3108 63.7372 20.7449 62.1982 21.5608L62.1922 21.5639C61.8552 21.7396 61.4823 21.8357 61.1024 21.8447C60.7224 21.8537 60.3454 21.7754 60.0004 21.6158C59.6554 21.4562 59.3517 21.2196 59.1125 20.9242C58.8734 20.6288 58.7052 20.2824 58.6209 19.9118L58.6199 19.9075C58.0823 17.4931 56.7377 15.3341 54.8079 13.7867C52.8781 12.2394 50.4785 11.3961 48.0049 11.3961C45.5314 11.3961 43.1318 12.2394 41.202 13.7867C39.2722 15.3341 37.9274 17.4939 37.3897 19.9083C37.3063 20.2815 37.1378 20.6304 36.8975 20.9279C36.6571 21.2253 36.3512 21.4633 36.0038 21.6231C35.6564 21.783 35.2768 21.8605 34.8945 21.8497C34.5125 21.8388 34.1381 21.7399 33.8005 21.5607C32.2296 20.7304 30.4791 20.2964 28.7022 20.2967C26.0908 20.2961 23.5662 21.2352 21.5901 22.9424C19.8345 24.4591 18.6158 26.492 18.1001 28.7386L33.02 33.0034L45.9728 27.8201C47.2737 27.2993 48.7252 27.2994 50.0261 27.8201ZM36.255 77.6717H26.6003C26.4911 77.6719 26.385 77.6352 26.2992 77.5675C26.2136 77.4998 26.1532 77.405 26.128 77.2988L15.757 33.2397L30.9076 37.568L36.255 77.6717ZM48.1884 32.4328L60.1346 37.214L54.7315 77.6717H41.2675L35.8751 37.2142L47.8216 32.4342L47.8252 32.4328C47.9417 32.3856 48.0719 32.3856 48.1884 32.4328ZM69.6995 77.5675C69.6138 77.6352 69.5077 77.6719 69.3984 77.6717H59.7437L65.0911 37.5679L80.2346 33.2398L69.8705 77.2996C69.8453 77.4056 69.785 77.5 69.6995 77.5675Z" fill="white"/>
</svg>
