<svg width="95" height="95" viewBox="0 0 95 95" fill="none" xmlns="http://www.w3.org/2000/svg">
<path d="M75.768 19.7918C82.7673 26.9316 87.0832 36.7119 87.0832 47.5001C87.0832 58.4165 82.6642 68.3007 75.5175 75.4617M19.7915 75.7683C12.4632 68.5842 7.9165 58.5731 7.9165 47.5001C7.9165 36.5552 12.3586 26.6478 19.5383 19.4824" stroke="white" stroke-width="5" stroke-linecap="round" stroke-linejoin="round"/>
<path d="M64.4609 31.841C68.6605 35.858 71.25 41.3604 71.25 47.4299C71.25 53.5715 68.5986 59.1324 64.3106 63.1612M30.875 63.3337C26.478 59.2919 23.75 53.6596 23.75 47.4299C23.75 41.2722 26.4153 35.6983 30.7231 31.667" stroke="white" stroke-width="5" stroke-linecap="round" stroke-linejoin="round"/>
<circle cx="47.5002" cy="47.4997" r="7.91667" stroke="white" stroke-width="5"/>
</svg>
