<svg width="90" height="90" viewBox="0 0 90 90" fill="none" xmlns="http://www.w3.org/2000/svg">
<path d="M56.8064 16.5605L63.4064 20.024C70.5069 23.7502 74.0572 25.6133 76.0286 28.9611C78 32.309 78 36.475 78 44.807V45.193C78 53.525 78 57.691 76.0286 61.0389C74.0572 64.3867 70.5069 66.2498 63.4064 69.976L56.8064 73.4395C51.0129 76.4798 48.1161 78 45 78C41.8839 78 38.9871 76.4798 33.1936 73.4395L26.5936 69.976C19.4931 66.2498 15.9428 64.3867 13.9714 61.0389C12 57.691 12 53.525 12 45.193V44.807C12 36.475 12 32.309 13.9714 28.9611C15.9428 25.6133 19.4931 23.7502 26.5936 20.024L33.1936 16.5605C38.9871 13.5202 41.8839 12 45 12C48.1161 12 51.0129 13.5202 56.8064 16.5605Z" stroke="white" stroke-width="5" stroke-linecap="round"/>
<path d="M75 29.8824L61.6667 36.4706M45 44.7059L15 29.8824M45 44.7059V76M45 44.7059C45 44.7059 54.1421 40.1886 60 37.2941C60.6509 36.9725 61.6667 36.4706 61.6667 36.4706M61.6667 36.4706V48M61.6667 36.4706L30 20" stroke="white" stroke-width="5" stroke-linecap="round"/>
</svg>
