<svg width="90" height="90" viewBox="0 0 90 90" fill="none" xmlns="http://www.w3.org/2000/svg">
<path d="M35.1041 62.2836L51.3441 36.3136H55.5441L39.1991 62.2836H35.1041ZM29.1191 42.9636C29.1191 39.0086 32.1641 35.8936 36.0141 35.8936C39.8291 35.8936 42.8741 39.0086 42.8741 42.9636C42.8741 46.9186 39.8291 50.0336 36.0141 50.0336C32.1641 50.0336 29.1191 46.9186 29.1191 42.9636ZM33.0041 42.9636C33.0041 44.7486 34.3341 46.1486 36.0141 46.1486C37.6941 46.1486 39.0241 44.7486 39.0241 42.9636C39.0241 41.1786 37.6941 39.7786 36.0141 39.7786C34.3341 39.7786 33.0041 41.1786 33.0041 42.9636ZM47.4591 55.4236C47.4591 51.4686 50.4691 48.3536 54.3541 48.3536C58.1691 48.3536 61.1791 51.4686 61.1791 55.4236C61.1791 59.3786 58.1691 62.4936 54.3541 62.4936C50.4691 62.4936 47.4591 59.3786 47.4591 55.4236ZM51.3091 55.4236C51.3091 57.2086 52.6391 58.6086 54.3541 58.6086C56.0341 58.6086 57.3291 57.2086 57.3291 55.4236C57.3291 53.6386 56.0341 52.2386 54.3541 52.2386C52.6391 52.2386 51.3091 53.6386 51.3091 55.4236Z" fill="white"/>
<path fill-rule="evenodd" clip-rule="evenodd" d="M52.6665 16.5547C48.4441 12.1901 41.5559 12.1901 37.3335 16.5547C32.986 21.0486 27.9638 26.7317 24.0445 32.5481C20.0598 38.4618 17.5 44.1044 17.5 48.6039C17.5 64.1794 29.8597 76.7188 45 76.7188C60.1403 76.7188 72.5 64.1794 72.5 48.6039C72.5 44.1044 69.9402 38.4618 65.9555 32.5481C62.0362 26.7317 57.014 21.0486 52.6665 16.5547ZM33.7399 13.0782C39.9274 6.68228 50.0726 6.68228 56.2601 13.0782C60.7048 17.6726 65.9509 23.5937 70.102 29.7541C74.1875 35.8173 77.5 42.5242 77.5 48.6039C77.5 66.8447 62.9968 81.7188 45 81.7188C27.0032 81.7188 12.5 66.8447 12.5 48.6039C12.5 42.5242 15.8125 35.8173 19.898 29.7541C24.0491 23.5937 29.2952 17.6726 33.7399 13.0782Z" fill="white"/>
</svg>
