<svg width="81" height="82" viewBox="0 0 81 82" fill="none" xmlns="http://www.w3.org/2000/svg">
<path fill-rule="evenodd" clip-rule="evenodd" d="M53.3872 3.4088C54.682 0.113736 59.3368 0.113729 60.6315 3.4088L62.3257 7.72026L66.6191 9.41982C69.902 10.7194 69.902 15.3741 66.6191 16.6736L62.3257 18.3732L60.6315 22.6846C59.3368 25.9797 54.682 25.9797 53.3872 22.6846L51.6931 18.3732L47.3997 16.6736C44.1168 15.3741 44.1168 10.7194 47.3997 9.41982L51.6931 7.72026L53.3872 3.4088ZM57.0094 5.01415L58.651 9.19195C59.0454 10.1957 59.8381 10.9927 60.8427 11.3904L65.0269 13.0467L60.8427 14.7031C59.8381 15.1007 59.0454 15.8977 58.651 16.9015L57.0094 21.0793L55.3678 16.9015C54.9734 15.8978 54.1807 15.1007 53.1761 14.7031L48.9919 13.0467L53.1761 11.3904C54.1807 10.9927 54.9734 10.1957 55.3678 9.19195L57.0094 5.01415Z" fill="white"/>
<path fill-rule="evenodd" clip-rule="evenodd" d="M4.6187 8.1187C10.2353 2.5021 19.3416 2.5021 24.9582 8.1187L73.3813 56.5418C78.9979 62.1584 78.9979 71.2647 73.3813 76.8813C67.7647 82.4979 58.6584 82.4979 53.0418 76.8813L4.6187 28.4582C-0.997899 22.8416 -0.997899 13.7353 4.6187 8.1187ZM20.7597 12.3171C17.4619 9.01929 12.115 9.01929 8.81714 12.3171C5.51929 15.615 5.51929 20.9619 8.81714 24.2597L15.0962 30.5388L27.0388 18.5962L20.7597 12.3171ZM57.2403 72.6828L19.2946 34.7372L31.2372 22.7946L69.1828 60.7403C72.4807 64.0381 72.4807 69.385 69.1828 72.6828C65.885 75.9807 60.5381 75.9807 57.2403 72.6828Z" fill="white"/>
<path fill-rule="evenodd" clip-rule="evenodd" d="M75.939 30.4136C74.6442 27.1185 69.9895 27.1185 68.6947 30.4136L68.083 31.9703L66.5342 32.5834C63.2513 33.8829 63.2513 38.5377 66.5342 39.8372L68.083 40.4503L68.6947 42.007C69.9895 45.3021 74.6442 45.3021 75.939 42.007L76.5507 40.4503L78.0995 39.8372C81.3824 38.5377 81.3824 33.8829 78.0995 32.5834L76.5507 31.9703L75.939 30.4136ZM72.3168 32.019L71.7577 33.442C71.3633 34.4457 70.5706 35.2428 69.566 35.6404L68.1264 36.2103L69.566 36.7802C70.5706 37.1778 71.3633 37.9749 71.7577 38.9786L72.3168 40.4017L72.876 38.9786C73.2704 37.9749 74.0631 37.1778 75.0677 36.7802L76.5073 36.2103L75.0677 35.6404C74.0631 35.2428 73.2704 34.4457 72.876 33.442L72.3168 32.019Z" fill="white"/>
<path fill-rule="evenodd" clip-rule="evenodd" d="M9.97685 54.8671C11.2716 51.5721 15.9264 51.5721 17.2211 54.8671L17.8328 56.4238L19.3816 57.0369C22.6646 58.3365 22.6646 62.9912 19.3816 64.2907L17.8328 64.9038L17.2211 66.4605C15.9264 69.7556 11.2716 69.7556 9.97685 66.4605L9.36516 64.9038L7.81635 64.2907C4.53344 62.9912 4.53344 58.3365 7.81635 57.0369L9.36516 56.4238L9.97685 54.8671ZM13.0398 57.8955L13.599 56.4725L14.1582 57.8955C14.5526 58.8993 15.3453 59.6963 16.3498 60.094L17.7894 60.6638L16.3498 61.2337C15.3453 61.6314 14.5526 62.4284 14.1582 63.4321L13.599 64.8552L13.0398 63.4321C12.6454 62.4284 11.8527 61.6314 10.8482 61.2337L9.40856 60.6638L10.8482 60.094C11.8527 59.6963 12.6454 58.8993 13.0398 57.8955Z" fill="white"/>
</svg>