<svg width="86" height="67" viewBox="0 0 86 67" fill="none" xmlns="http://www.w3.org/2000/svg">
<path fill-rule="evenodd" clip-rule="evenodd" d="M43.077 43.1275C41.9242 43.1275 40.7459 43.3033 39.7471 43.6903C39.2573 43.8801 38.658 44.1792 38.1302 44.6627C37.6004 45.1481 36.916 46.0469 36.916 47.3332C36.916 48.6195 37.6004 49.5183 38.1302 50.0037C38.658 50.4872 39.2573 50.7863 39.7471 50.9761C40.7459 51.3631 41.9242 51.5389 43.077 51.5389C44.2298 51.5389 45.4081 51.3631 46.4069 50.9761C46.8967 50.7863 47.496 50.4872 48.0238 50.0037C48.5536 49.5183 49.238 48.6195 49.238 47.3332C49.238 46.0469 48.5536 45.1481 48.0238 44.6627C47.496 44.1792 46.8967 43.8801 46.4069 43.6903C45.4081 43.3033 44.2298 43.1275 43.077 43.1275Z" fill="white"/>
<path d="M51.0605 34.059C51.7137 33.0044 53.0037 31.7477 54.9387 31.7477C56.8737 31.7477 58.1637 33.0044 58.8169 34.0591C59.4982 35.1592 59.8228 36.4925 59.8228 37.8089C59.8228 39.1253 59.4982 40.4587 58.8169 41.5588C58.1637 42.6135 56.8737 43.8701 54.9387 43.8701C53.0037 43.8701 51.7137 42.6135 51.0605 41.5588C50.3791 40.4587 50.0546 39.1253 50.0546 37.8089C50.0546 36.4925 50.3791 35.1591 51.0605 34.059Z" fill="white"/>
<path d="M31.189 31.7477C29.2541 31.7477 27.9641 33.0044 27.3108 34.0591C26.6295 35.1591 26.305 36.4925 26.305 37.8089C26.305 39.1253 26.6295 40.4587 27.3108 41.5588C27.9641 42.6135 29.2541 43.8701 31.189 43.8701C33.124 43.8701 34.414 42.6135 35.0673 41.5588C35.7486 40.4587 36.0731 39.1253 36.0731 37.8089C36.0731 36.4925 35.7486 35.1591 35.0673 34.0591C34.414 33.0044 33.124 31.7477 31.189 31.7477Z" fill="white"/>
<path fill-rule="evenodd" clip-rule="evenodd" d="M19.6248 0.823242C17.1969 0.823242 14.3989 1.53063 12.1593 3.46014C9.83745 5.46044 8.44327 8.49373 8.44327 12.4508V19.8727L8.44329 19.8844C8.44786 21.048 8.64537 23.3761 9.30919 25.3223C9.52631 25.9589 9.87319 26.8033 10.4525 27.5651C9.32835 29.7937 8.79554 32.092 8.5534 34.3089C8.35126 36.1596 8.34853 38.1026 8.38071 39.8965C5.7641 40.8053 3.0549 41.9302 1.80575 42.7369C0.428426 43.6264 0.0329821 45.4641 0.922503 46.8414C1.81202 48.2187 3.64967 48.6142 5.02699 47.7247C5.48781 47.4271 6.84733 46.8047 8.63576 46.122C8.90838 48.0186 9.46101 49.7462 10.2327 51.3168C9.61559 51.7015 9.07038 52.058 8.63663 52.3416C8.47059 52.4502 8.32088 52.5481 8.18972 52.6328C6.8124 53.5223 6.41695 55.3599 7.30647 56.7372C8.196 58.1146 10.0336 58.51 11.411 57.6205C11.5738 57.5154 11.7472 57.4021 11.9303 57.2826C12.4496 56.9437 13.0461 56.5543 13.6958 56.1559C16.0294 58.541 18.9273 60.3817 21.9377 61.7666C28.9868 65.0092 37.3351 66.1357 42.9997 66.1357C48.6642 66.1357 57.0126 65.0092 64.0617 61.7666C67.072 60.3818 69.9699 58.5411 72.3035 56.156C72.9531 56.5543 73.5496 56.9437 74.0688 57.2826C74.2519 57.4021 74.4254 57.5154 74.5882 57.6205C75.9655 58.51 77.8031 58.1146 78.6926 56.7372C79.5822 55.3599 79.1867 53.5223 77.8094 52.6328C77.6782 52.548 77.5285 52.4502 77.3625 52.3416C76.9288 52.058 76.3836 51.7015 75.7667 51.3169C76.5385 49.7462 77.0911 48.0183 77.3637 46.1215C79.1529 46.8044 80.513 47.427 80.9739 47.7247C82.3512 48.6142 84.1889 48.2187 85.0784 46.8414C85.9679 45.4641 85.5725 43.6264 84.1951 42.7369C82.9458 41.93 80.2358 40.8049 77.6187 39.896C77.6509 38.1022 77.6482 36.1595 77.446 34.3089C77.2039 32.092 76.6711 29.7937 75.5469 27.5651C76.1262 26.8033 76.4731 25.9589 76.6903 25.3223C77.3541 23.3762 77.5516 21.048 77.5562 19.8844L77.5562 19.8727V12.4513C77.5562 8.49418 76.162 5.46089 73.8402 3.4606C71.6006 1.53108 68.8026 0.823695 66.3747 0.823695C64.758 0.823695 63.0853 1.4441 61.7369 2.05334C60.3075 2.69916 58.8137 3.53827 57.4701 4.31197C57.1812 4.47834 56.9006 4.64084 56.628 4.79869L56.6201 4.80327C55.5749 5.40859 54.6475 5.94571 53.8211 6.37151C53.3076 6.63604 52.9089 6.81733 52.6122 6.92724C52.4871 6.97356 52.4072 6.9969 52.3661 7.00784C51.3627 7.00228 50.7234 6.92037 49.8003 6.80208C49.6022 6.77669 49.3909 6.74962 49.1602 6.72128C47.788 6.55267 46.056 6.3901 42.9998 6.3901C39.9437 6.3901 38.2117 6.55267 36.8394 6.72128C36.6087 6.74962 36.3975 6.77668 36.1994 6.80207C35.2762 6.92036 34.6369 7.00228 33.6335 7.00784C33.5925 6.9969 33.5125 6.97356 33.3875 6.92724C33.0908 6.81733 32.692 6.63602 32.1786 6.37147C31.3521 5.94565 30.425 5.40864 29.3798 4.80328C29.1046 4.64393 28.8213 4.47984 28.5295 4.31179C27.1859 3.53803 25.6921 2.69886 24.2627 2.05299C22.9142 1.44371 21.2415 0.823242 19.6248 0.823242ZM19.8903 53.7217C21.2125 54.7186 22.7358 55.5981 24.4191 56.3724C30.4789 59.16 37.9244 60.1982 42.9997 60.1982C48.0749 60.1982 55.5204 59.16 61.5803 56.3724C63.2635 55.5981 64.7869 54.7186 66.1091 53.7218C64.714 53.4787 63.6534 52.2618 63.6534 50.7972C63.6534 49.1576 64.9826 47.8284 66.6221 47.8284C67.9174 47.8284 69.241 48.1524 70.4698 48.6018C71.0976 47.2881 71.483 45.8491 71.5889 44.2741C70.4104 43.9865 69.5966 43.8701 69.1773 43.8701C67.5377 43.8701 66.2085 42.541 66.2085 40.9014C66.2085 39.2618 67.5377 37.9326 69.1773 37.9326C69.9483 37.9326 70.8201 38.0483 71.699 38.2192C71.6994 37.1262 71.6637 36.0532 71.5436 34.9536C71.2646 32.3989 70.5413 30.1313 68.8349 28.1146C68.2247 27.3934 67.4655 26.6762 66.5127 25.9766C65.1911 25.0062 64.9064 23.1482 65.8768 21.8266C66.8472 20.505 68.7052 20.2203 70.0268 21.1907C70.4983 21.5369 70.9439 21.8927 71.3645 22.2579C71.5387 21.3546 71.6161 20.4098 71.6187 19.8663V12.4513C71.6187 9.97612 70.8018 8.67998 69.9648 7.95892C69.0457 7.16709 67.7373 6.7612 66.3747 6.7612C66.0961 6.7612 65.3997 6.91384 64.1816 7.46419C63.0445 7.97795 61.7744 8.68495 60.433 9.45736C60.1811 9.60243 59.9247 9.75101 59.6661 9.90083C58.6063 10.5149 57.5105 11.1499 56.5405 11.6496C55.9286 11.9649 55.2909 12.2668 54.6745 12.4951C54.1055 12.7058 53.3185 12.9456 52.4761 12.9456C51.0042 12.9456 49.9727 12.8121 48.9826 12.684C48.8 12.6603 48.6185 12.6369 48.4362 12.6145C47.2934 12.474 45.8034 12.3276 42.9998 12.3276C40.1963 12.3276 38.7063 12.474 37.5635 12.6145C37.3811 12.6369 37.1999 12.6603 37.0172 12.684C36.0271 12.8121 34.9954 12.9456 33.5235 12.9456C32.681 12.9456 31.8941 12.7058 31.325 12.495C30.7086 12.2667 30.0709 11.9648 29.459 11.6495C28.489 11.1497 27.3933 10.5148 26.3335 9.90067C26.0749 9.75084 25.8184 9.60218 25.5664 9.45709C24.2251 8.68463 22.9549 7.97757 21.8178 7.46378C20.5997 6.91339 19.9033 6.76074 19.6248 6.76074C18.2622 6.76074 16.9538 7.16664 16.0347 7.95848C15.1977 8.67954 14.3808 9.97567 14.3808 12.4508V19.8663C14.3834 20.4098 14.4607 21.3546 14.6349 22.2578C15.0556 21.8927 15.5012 21.5369 15.9726 21.1907C17.2942 20.2203 19.1523 20.505 20.1226 21.8266C21.093 23.1482 20.8083 25.0062 19.4867 25.9766C18.5339 26.6762 17.7748 27.3934 17.1645 28.1146C15.4582 30.1313 14.7348 32.3989 14.4558 34.9536C14.3357 36.0533 14.3001 37.1264 14.3004 38.2195C15.1799 38.0485 16.0522 37.9326 16.8237 37.9326C18.4633 37.9326 19.7924 39.2618 19.7924 40.9014C19.7924 42.541 18.4633 43.8701 16.8237 43.8701C16.4042 43.8701 15.5898 43.9866 14.4106 44.2744C14.5165 45.8493 14.9018 47.2881 15.5296 48.6017C16.7583 48.1524 18.0818 47.8284 19.377 47.8284C21.0166 47.8284 22.3457 49.1576 22.3457 50.7972C22.3457 52.2617 21.2852 53.4786 19.8903 53.7217Z" fill="white"/>
</svg>
